<?xml version="1.0" encoding="UTF-8" standalone="no"?>
<!DOCTYPE svg PUBLIC "-//W3C//DTD SVG 1.1//EN" "http://www.w3.org/Graphics/SVG/1.1/DTD/svg11.dtd">
<svg width="100%" height="100%" viewBox="0 0 100 100" version="1.1" xmlns="http://www.w3.org/2000/svg" xmlns:xlink="http://www.w3.org/1999/xlink" xml:space="preserve" xmlns:serif="http://www.serif.com/" style="fill-rule:evenodd;clip-rule:evenodd;stroke-linejoin:round;stroke-miterlimit:2;">
    <path d="M12.341,31.386C11.212,34.227 10.406,37.249 9.975,40.414C7.117,61.417 21.848,80.789 42.851,83.648C63.854,86.506 83.226,71.775 86.084,50.772C88.56,32.58 77.84,15.612 61.278,9.538C81.194,15.068 94.481,34.617 91.616,55.664C88.49,78.632 67.305,94.742 44.336,91.616C21.368,88.49 5.258,67.305 8.384,44.336C9.014,39.707 10.377,35.356 12.341,31.386Z" style="fill:rgb(187,187,187);"/>
    <path d="M22.539,63.899C21.053,55.994 24.745,47.706 33.842,41.737C30.086,48.213 31.811,53.265 34.062,56.938C36.18,60.394 40.205,61.901 43.345,59.888C48.942,56.301 44.192,49.61 41.455,46.013C37.473,40.778 33.882,36.001 35.32,28.547C36.483,33.521 37.825,35.397 41.569,36.942C35.84,27.394 39.812,12.473 49.987,5.073C45.855,17.215 53.804,18.689 58.33,25.78C63.769,34.303 60.228,35.123 67.071,44.4C67.13,38.837 68.285,35.931 72.256,32.969C70.26,37.831 71.665,43.068 74.185,49.968C78.883,62.835 76.61,70.478 63.292,77.997C71.73,69.118 68.915,55.666 59.636,47.478C52.617,41.284 51.087,38.991 48.913,29.894C48.32,36.87 49.999,42.67 51.91,45.815C56.96,54.126 55.608,66.433 48.359,69.267C41.825,71.822 32.961,69.29 28.709,59.156C28.722,69.279 31.526,76.216 40.459,80.984C29.919,78.448 24.023,71.796 22.539,63.899Z" style="fill:url(#_Linear1);"/>
    <path d="M47.815,79.958C41.427,79.52 36.639,76.496 33.379,70.038C48.013,79.346 64.551,65.693 54.974,46.2C70.243,61.792 66.887,74.511 56.725,79.013C61.617,75.468 62.37,71.907 60.622,66.463C58.953,76.044 50.581,81.379 41.943,75.947C43.308,77.955 45.183,79.077 47.815,79.958Z" style="fill:url(#_Linear2);"/>
    <defs>
        <linearGradient id="_Linear1" x1="0" y1="0" x2="1" y2="0" gradientUnits="userSpaceOnUse" gradientTransform="matrix(5.92745,74.273,-74.273,5.92745,46.5842,5.29051)"><stop offset="0" style="stop-color:rgb(255,149,0);stop-opacity:1"/><stop offset="0.5" style="stop-color:rgb(255,85,0);stop-opacity:1"/><stop offset="1" style="stop-color:rgb(102,0,0);stop-opacity:1"/></linearGradient>
        <linearGradient id="_Linear2" x1="0" y1="0" x2="1" y2="0" gradientUnits="userSpaceOnUse" gradientTransform="matrix(-3.58939,-30.9211,30.9211,-3.58939,52.6704,79.9979)"><stop offset="0" style="stop-color:rgb(77,25,26);stop-opacity:1"/><stop offset="0.49" style="stop-color:rgb(196,36,6);stop-opacity:1"/><stop offset="1" style="stop-color:rgb(235,39,0);stop-opacity:1"/></linearGradient>
    </defs>
</svg>
